<?xml version="1.0" standalone="no"?>
<!DOCTYPE svg PUBLIC "-//W3C//DTD SVG 20010904//EN"
 "http://www.w3.org/TR/2001/REC-SVG-20010904/DTD/svg10.dtd">
<svg version="1.0" xmlns="http://www.w3.org/2000/svg"
 width="1080.000000pt" height="1080.000000pt" viewBox="0 0 1080.000000 1080.000000"
 preserveAspectRatio="xMidYMid meet">

<g transform="translate(0.000000,1080.000000) scale(0.100000,-0.100000)"
fill="#000000" stroke="none">
<path d="M6302 9137 c-22 -23 -22 -24 -22 -413 0 -214 -4 -394 -8 -400 -4 -6
-20 -14 -35 -18 -23 -5 -36 0 -80 38 -61 54 -174 111 -237 121 -25 4 -63 14
-85 22 -49 19 -236 21 -280 3 -16 -6 -59 -17 -95 -25 -99 -21 -238 -101 -307
-176 -34 -38 -103 -133 -103 -142 0 -5 -9 -22 -20 -37 -21 -30 -64 -145 -80
-215 -43 -187 -63 -472 -40 -572 6 -23 17 -90 25 -147 8 -58 23 -123 33 -143
10 -21 25 -59 32 -85 7 -27 16 -48 20 -48 4 0 15 -19 26 -41 22 -49 58 -98
117 -156 73 -74 82 -81 120 -99 20 -10 37 -21 37 -26 0 -4 26 -15 58 -24 31
-9 68 -24 82 -33 37 -24 414 -24 451 1 14 9 46 22 70 28 61 17 125 56 181 113
40 41 52 48 80 45 33 -3 33 -4 41 -68 4 -36 14 -71 22 -79 20 -20 524 -19 536
1 5 7 9 587 9 1289 0 1175 -1 1278 -17 1290 -12 11 -72 15 -262 17 l-247 3
-22 -24z m-314 -1041 c46 -13 92 -32 104 -42 118 -109 139 -150 188 -369 12
-51 12 -277 1 -330 -5 -22 -18 -82 -29 -133 -11 -51 -26 -100 -35 -110 -8 -9
-18 -28 -22 -41 -14 -45 -87 -111 -165 -149 -67 -33 -83 -37 -150 -36 -60 1
-86 7 -130 29 -60 30 -144 110 -155 147 -4 13 -14 31 -22 40 -8 9 -23 52 -33
95 -10 43 -23 96 -29 118 -13 49 -14 337 -1 385 5 19 18 70 28 113 11 43 26
85 33 95 8 9 23 34 33 54 30 60 97 110 179 135 92 27 105 27 205 -1z"/>
<path d="M2345 8504 c-22 -2 -65 -8 -95 -14 -30 -5 -108 -17 -173 -25 -64 -8
-136 -24 -160 -34 -23 -11 -61 -24 -84 -30 -31 -9 -47 -21 -64 -47 -20 -33
-21 -45 -17 -169 3 -90 9 -139 18 -150 16 -20 67 -12 130 20 25 12 64 26 88
30 24 4 69 16 100 28 51 19 79 21 257 21 l200 1 50 -29 c85 -50 123 -93 144
-166 30 -104 31 -117 6 -140 -33 -31 -152 -58 -305 -70 -162 -12 -201 -17
-260 -35 -25 -8 -79 -19 -120 -25 -41 -6 -91 -19 -110 -29 -20 -10 -51 -22
-70 -26 -19 -4 -55 -20 -79 -36 -25 -16 -49 -29 -55 -29 -17 0 -139 -120 -169
-165 -15 -22 -40 -80 -57 -128 -25 -71 -30 -103 -30 -174 0 -92 5 -117 41
-222 28 -82 62 -133 137 -201 80 -74 105 -90 182 -118 115 -41 142 -45 320
-45 143 0 183 3 220 17 25 10 73 26 106 35 34 10 74 28 89 39 15 12 32 22 38
22 5 0 25 14 44 30 18 17 45 30 58 30 29 0 55 -34 55 -71 0 -52 12 -54 282
-53 180 2 253 5 263 14 13 11 15 94 15 599 0 605 -8 788 -34 839 -9 17 -18 49
-22 71 -4 23 -20 61 -35 84 -16 23 -29 47 -29 53 0 15 -130 144 -145 144 -6 0
-20 9 -30 20 -9 10 -34 24 -54 31 -20 6 -51 20 -68 31 -18 11 -71 26 -118 33
-47 8 -102 19 -122 25 -41 11 -271 21 -338 14z m400 -1056 l27 -21 -5 -146
c-5 -174 -25 -243 -86 -306 -63 -64 -91 -81 -185 -109 -108 -33 -175 -35 -258
-5 -89 32 -132 71 -163 147 -31 76 -31 108 -3 185 18 49 31 67 77 104 31 24
67 46 81 50 14 3 39 14 56 24 17 10 63 25 103 34 40 8 82 20 94 27 21 11 156
35 208 37 15 1 39 -9 54 -21z"/>
<path d="M7890 8500 c-114 -20 -248 -53 -275 -69 -16 -10 -49 -24 -72 -31 -24
-7 -43 -17 -43 -21 0 -5 -15 -17 -34 -26 -79 -41 -216 -184 -267 -278 -84
-158 -90 -177 -129 -417 -23 -149 -25 -209 -6 -298 8 -36 19 -101 26 -145 6
-44 22 -102 35 -130 12 -27 28 -67 35 -87 6 -21 15 -38 20 -38 4 0 13 -13 18
-29 23 -65 170 -231 243 -276 85 -52 174 -95 207 -101 21 -4 59 -15 86 -26
107 -41 537 -44 615 -4 16 9 51 20 77 26 75 16 211 89 286 152 52 44 118 107
118 114 0 3 12 21 28 39 39 48 72 104 89 150 7 21 20 47 29 56 8 9 22 52 29
95 8 44 21 104 30 134 10 38 15 103 15 212 0 136 -3 171 -25 254 -14 53 -25
104 -25 113 0 9 -11 36 -24 61 -13 25 -27 56 -31 70 -4 14 -18 38 -31 53 -13
16 -24 34 -24 40 -2 37 -193 229 -255 256 -12 5 -27 16 -34 25 -7 9 -35 22
-61 30 -27 8 -59 21 -72 30 -21 14 -119 39 -258 66 -54 11 -257 10 -320 0z
m245 -360 c44 -7 77 -18 90 -30 12 -11 26 -20 31 -20 15 0 94 -88 94 -104 0
-7 7 -19 15 -26 8 -7 22 -38 31 -69 8 -31 22 -71 30 -89 34 -78 40 -460 9
-572 -7 -25 -21 -71 -30 -104 -9 -32 -24 -70 -34 -85 -10 -14 -26 -38 -35 -53
-43 -72 -192 -148 -288 -148 -67 0 -164 42 -228 98 -33 29 -60 59 -60 66 0 7
-11 30 -25 50 -14 21 -30 61 -36 89 -6 29 -18 75 -27 102 -25 73 -25 427 0
500 9 28 22 76 28 107 6 31 19 67 29 80 10 13 21 32 25 43 8 28 72 95 121 128
35 23 107 43 170 46 11 0 51 -4 90 -9z"/>
<path d="M4610 8460 c-92 -13 -196 -68 -277 -147 -40 -39 -73 -75 -73 -82 0
-6 -21 -32 -46 -57 -42 -43 -47 -46 -62 -30 -13 12 -17 44 -22 141 -4 101 -8
128 -23 142 -16 16 -41 18 -253 18 -236 0 -236 0 -255 -24 -18 -22 -19 -52
-19 -936 0 -837 1 -914 17 -926 12 -11 70 -14 257 -16 234 -2 297 4 313 30 5
7 10 237 13 512 l5 500 34 65 c62 120 128 176 256 222 66 23 96 28 173 28 116
0 147 13 156 67 3 21 6 133 6 249 0 156 -3 215 -13 228 -15 21 -103 29 -187
16z"/>
<path d="M2267 6197 l-27 -22 2 -1231 c3 -1195 4 -1233 22 -1253 18 -20 27
-21 281 -21 232 0 264 2 276 17 11 13 15 112 17 532 l3 516 26 105 c14 58 35
118 47 133 56 74 81 98 134 128 52 30 65 33 142 34 75 0 92 -3 142 -30 59 -30
138 -112 138 -144 0 -9 10 -36 22 -61 22 -44 22 -54 28 -627 3 -320 9 -585 13
-590 14 -13 506 -16 538 -2 18 7 32 23 39 44 8 23 9 211 6 616 -5 577 -5 585
-31 713 -14 71 -34 144 -45 161 -11 18 -20 38 -20 45 0 17 -56 95 -100 138
-52 50 -144 109 -198 126 -26 8 -67 22 -92 32 -63 23 -307 22 -371 -1 -24 -9
-65 -22 -91 -30 -61 -17 -126 -57 -191 -119 -56 -52 -102 -73 -124 -55 -10 9
-13 92 -13 418 0 352 -2 410 -16 429 -15 22 -18 22 -272 22 -251 0 -258 -1
-285 -23z"/>
<path d="M1430 6115 c-7 -22 -23 -53 -36 -68 -13 -16 -24 -36 -24 -46 0 -10
-13 -35 -30 -57 -16 -21 -30 -44 -30 -49 0 -14 -113 -132 -154 -161 -17 -13
-49 -33 -71 -45 -22 -12 -47 -27 -55 -34 -8 -7 -34 -18 -58 -24 -23 -7 -57
-20 -75 -30 -17 -10 -50 -22 -72 -26 -22 -3 -50 -13 -63 -21 -13 -9 -42 -22
-65 -30 -112 -39 -244 -165 -311 -294 -26 -51 -75 -251 -76 -309 0 -23 1 -23
18 -8 10 10 24 17 30 17 6 0 19 14 28 32 26 50 169 178 199 178 7 0 25 10 40
22 29 22 119 48 172 48 64 0 63 14 64 -575 0 -291 4 -550 9 -575 12 -66 53
-169 84 -214 76 -112 178 -168 350 -192 129 -18 171 -17 460 11 176 17 180 18
218 48 l38 32 0 142 0 142 -29 21 c-27 19 -36 20 -93 10 -35 -5 -112 -10 -172
-10 -104 0 -110 1 -157 31 -26 18 -61 50 -76 73 l-28 41 -3 484 c-3 443 -1
485 14 502 16 18 35 19 248 19 127 0 236 4 241 8 25 17 35 68 35 172 0 157 10
150 -229 150 -103 0 -209 3 -235 6 -74 11 -76 18 -77 321 0 275 -6 327 -29
258z"/>
<path d="M9213 5570 c-40 -5 -85 -16 -101 -24 -15 -8 -46 -18 -67 -22 -46 -8
-182 -72 -240 -114 -130 -91 -266 -274 -300 -403 -8 -26 -18 -53 -23 -60 -49
-60 -54 -629 -6 -722 9 -16 23 -52 31 -80 8 -27 21 -57 28 -65 7 -8 21 -31 30
-50 30 -59 123 -163 192 -213 72 -53 128 -87 144 -87 9 0 37 -11 63 -25 29
-15 85 -31 142 -40 52 -9 107 -21 122 -27 38 -16 386 -16 432 0 19 6 83 19
142 27 59 8 126 24 150 35 24 11 61 24 83 30 63 15 75 47 75 188 -1 108 -2
119 -24 143 l-23 27 -59 -19 c-33 -10 -95 -29 -140 -43 -110 -35 -330 -52
-474 -38 -86 8 -116 16 -167 42 -94 49 -149 111 -173 195 -11 39 -18 80 -15
92 10 42 41 50 260 67 275 22 366 33 403 51 16 9 56 20 88 26 33 6 69 17 82
25 13 9 40 21 61 29 47 16 137 75 173 112 56 57 76 90 107 177 35 100 41 192
15 261 -8 22 -19 60 -25 84 -5 25 -22 65 -37 90 -28 46 -124 149 -177 188 -51
38 -144 82 -204 97 -31 8 -76 22 -101 31 -54 20 -349 30 -467 15z m307 -357
c134 -47 190 -122 190 -253 0 -86 -40 -148 -120 -185 -19 -9 -46 -22 -60 -30
-38 -20 -427 -57 -454 -43 -66 34 -71 78 -30 249 26 106 27 109 88 172 46 50
73 69 111 81 28 9 57 21 65 26 30 19 132 11 210 -17z"/>
<path d="M5440 5559 c-98 -23 -200 -56 -216 -69 -11 -9 -32 -22 -48 -30 -15
-8 -51 -41 -80 -73 -28 -32 -71 -79 -95 -104 -41 -43 -45 -45 -58 -28 -9 13
-13 53 -13 130 0 96 -3 114 -18 128 -16 15 -50 17 -268 17 -181 0 -253 -3
-262 -12 -16 -16 -18 -1799 -2 -1829 10 -18 24 -19 265 -19 272 0 296 4 314
49 7 16 11 201 13 492 l3 465 39 75 c43 83 103 152 150 170 17 7 38 18 47 26
24 20 112 33 227 34 98 0 105 2 134 28 l31 28 5 225 c5 244 -1 291 -41 302
-29 8 -84 6 -127 -5z"/>
<path d="M6704 5533 c-145 -3 -163 -5 -179 -23 -17 -18 -17 -23 -1 -84 9 -36
24 -80 35 -98 10 -18 22 -48 26 -67 4 -19 18 -54 31 -79 13 -25 24 -54 24 -66
0 -12 11 -41 24 -66 13 -25 29 -65 36 -88 6 -24 20 -58 31 -75 10 -18 19 -41
19 -53 0 -12 11 -41 24 -66 13 -24 31 -70 40 -101 9 -31 20 -59 25 -62 6 -3
17 -30 26 -60 8 -30 24 -69 34 -87 11 -18 22 -48 26 -67 4 -19 18 -54 31 -79
13 -25 24 -53 24 -62 0 -9 10 -37 23 -61 13 -24 29 -65 35 -91 7 -26 21 -62
31 -80 10 -18 22 -49 26 -68 4 -19 15 -48 25 -65 10 -16 24 -52 31 -80 7 -27
25 -68 41 -92 l29 -43 264 0 c177 0 272 4 289 11 15 7 30 26 37 48 7 20 23 56
36 80 12 24 23 56 23 70 0 15 9 45 21 66 11 22 26 64 34 94 8 30 21 63 28 75
8 12 17 35 20 52 5 28 1 35 -32 62 -21 17 -63 38 -94 47 -31 9 -59 20 -62 25
-3 5 -31 18 -63 30 -31 12 -64 28 -73 36 -8 8 -37 18 -63 23 -64 12 -92 41
-112 121 -9 35 -22 73 -29 85 -8 11 -19 43 -26 70 -6 28 -20 64 -29 80 -10 17
-23 54 -30 84 -7 30 -21 69 -30 85 -10 17 -23 52 -29 78 -6 26 -20 62 -30 80
-10 18 -22 51 -26 73 -4 22 -15 54 -25 70 -9 17 -23 55 -30 85 -7 30 -21 71
-31 90 -11 19 -23 53 -29 76 -14 58 -53 75 -173 72 -51 -1 -165 -4 -253 -5z"/>
</g>
</svg>
